{"glyphs":{"0":{"ha":918,"x_min":0,"x_max":0,"o":"m 97 486 b 585 992 136 769 321 992 b 914 486 858 992 949 756 b 426 -19 875 201 697 -19 b 97 486 161 -19 63 217 m 354 486 b 451 213 342 367 342 215 b 656 486 563 210 638 351 b 558 760 668 606 668 757 b 354 486 447 763 372 621 "},"1":{"ha":710,"x_min":0,"x_max":0,"o":"m 199 894 l 715 993 l 544 0 l 288 0 l 410 718 l 157 661 "},"2":{"ha":921,"x_min":0,"x_max":0,"o":"m 476 436 b 644 656 553 510 632 569 b 556 761 651 710 625 760 b 403 604 472 764 419 683 l 139 606 b 586 993 175 815 333 993 b 924 675 800 993 950 847 b 749 415 908 567 836 482 l 531 250 l 888 249 l 849 0 l -3 0 "},"3":{"ha":868,"x_min":0,"x_max":0,"o":"m 422 -25 b 82 325 193 -24 67 136 l 343 325 b 453 189 339 243 376 192 b 596 294 522 188 586 224 b 421 417 613 378 531 414 l 428 468 l 443 582 b 633 701 528 588 625 628 b 556 778 638 746 611 776 b 426 674 488 779 442 729 l 179 675 b 576 992 213 857 364 992 b 899 718 774 992 924 885 b 699 507 882 608 803 543 b 856 268 804 468 874 393 b 422 -25 829 83 646 -26 "},"4":{"ha":990,"x_min":0,"x_max":0,"o":"m 694 971 l 911 972 l 813 396 l 961 396 l 921 165 l 772 165 l 744 0 l 464 0 l 492 165 l 1 167 m 558 357 l 599 594 l 383 357 "},"5":{"ha":903,"x_min":0,"x_max":0,"o":"m 876 307 b 435 -19 849 88 631 -18 b 51 83 278 -19 154 25 l 168 315 b 393 229 242 261 322 229 b 589 343 488 229 576 260 b 439 450 600 424 513 449 b 151 399 354 451 247 433 l 371 972 l 954 972 l 917 736 l 533 736 l 454 590 b 628 622 507 613 567 622 b 876 307 789 619 897 486 "},"6":{"ha":940,"x_min":0,"x_max":0,"o":"m 918 965 l 578 654 b 651 664 600 661 624 664 b 907 349 807 664 926 525 b 450 -25 878 113 675 -25 b 96 349 229 -25 67 117 b 263 642 113 464 183 557 l 569 965 m 360 347 b 474 206 349 269 393 207 b 643 349 556 204 631 268 b 529 493 654 425 610 492 b 360 347 447 494 372 429 "},"7":{"ha":844,"x_min":0,"x_max":0,"o":"m 165 972 l 976 972 l 368 0 l 72 0 l 540 718 l 124 718 "},"8":{"ha":879,"x_min":0,"x_max":0,"o":"m 75 264 b 300 518 93 393 189 476 b 189 739 225 563 175 636 b 565 997 214 910 389 997 b 868 736 735 997 893 908 b 682 510 853 628 776 551 b 821 264 772 465 838 385 b 406 -25 793 79 594 -25 b 75 264 225 -25 47 79 m 435 711 b 503 617 428 663 451 617 b 614 713 561 617 606 661 b 544 807 621 761 596 807 b 435 711 485 807 443 763 m 349 306 b 431 194 339 244 369 194 b 563 308 499 194 553 243 b 478 413 571 361 536 413 b 349 306 411 413 360 363 "},"9":{"ha":940,"x_min":0,"x_max":0,"o":"m 129 6 l 467 318 b 393 308 444 311 421 308 b 138 624 238 308 118 447 b 594 997 167 860 369 997 b 950 624 815 997 979 856 b 782 331 933 508 861 415 l 475 6 m 685 625 b 571 767 696 703 651 765 b 403 624 489 768 415 704 b 517 479 392 547 436 481 b 685 625 599 478 672 543 "}," ":{"ha":417,"x_min":0,"x_max":0,"o":""},"!":{"ha":481,"x_min":0,"x_max":0,"o":"m 517 972 l 360 335 l 161 335 l 224 972 m 74 96 b 222 229 74 175 135 229 b 369 96 310 229 369 175 b 222 -39 369 17 310 -39 b 74 96 135 -39 74 17 "},"'":{"ha":421,"x_min":0,"x_max":0,"o":"m 506 972 l 286 522 l 128 521 l 254 972 "},"\"":{"ha":719,"x_min":0,"x_max":0,"o":"m 506 972 l 286 522 l 128 521 l 254 972 m 804 972 l 585 522 l 426 521 l 553 972 "},"#":{"ha":925,"x_min":0,"x_max":0,"o":"m 79 419 l 208 419 l 265 560 l 161 560 l 190 753 l 343 753 l 432 972 l 642 972 l 551 753 l 681 753 l 769 972 l 981 972 l 892 753 l 972 753 l 939 560 l 813 560 l 756 419 l 863 419 l 828 226 l 676 226 l 585 0 l 375 0 l 468 226 l 338 226 l 246 0 l 38 0 l 129 226 l 46 226 m 554 408 l 621 571 l 467 571 l 400 408 "},"$":{"ha":854,"x_min":0,"x_max":0,"o":"m 693 668 b 558 793 663 736 624 793 b 451 718 503 793 460 760 b 639 582 435 639 554 615 b 840 275 772 529 858 424 b 513 -7 817 114 682 18 l 496 -156 l 304 -156 l 335 -6 b 44 228 200 22 92 114 l 243 360 b 442 199 292 265 344 199 b 558 276 503 199 550 225 b 397 404 571 343 479 371 b 176 717 288 453 157 550 b 486 979 197 854 329 954 l 506 1136 l 697 1136 l 665 976 b 904 781 783 951 856 878 l 693 668 "},"%":{"ha":1310,"x_min":0,"x_max":0,"o":"m 111 736 b 419 1003 132 881 267 1003 b 651 735 571 1003 671 875 b 343 468 631 590 496 468 b 111 736 192 468 92 596 m 1294 972 l 365 0 l 108 0 l 1036 972 m 303 733 b 369 657 299 696 322 657 b 458 738 413 657 453 697 b 393 814 463 775 440 814 b 303 733 350 814 308 774 m 751 239 b 1060 506 772 383 907 506 b 1292 238 1211 506 1311 378 b 983 -29 1271 93 1136 -29 b 751 239 832 -29 732 99 m 944 236 b 1007 160 940 199 965 160 b 1099 239 1050 160 1090 193 b 1036 317 1103 276 1078 317 b 944 236 993 317 953 282 "},"&":{"ha":1046,"x_min":0,"x_max":0,"o":"m 688 69 b 371 -19 592 15 486 -19 b 68 263 193 -18 44 86 b 340 535 88 417 218 486 b 264 750 292 603 254 668 b 607 999 285 886 431 999 b 865 757 771 999 883 888 b 625 492 849 629 749 565 l 740 339 b 867 485 788 386 831 436 l 1008 358 b 853 192 964 303 913 244 l 999 0 l 739 0 m 488 731 b 529 614 481 692 500 654 b 650 733 592 647 643 686 b 581 808 653 767 629 808 b 488 731 529 808 494 772 m 424 182 b 576 217 476 179 528 193 l 439 403 b 321 285 381 376 331 344 b 424 182 311 228 350 185 "},"(":{"ha":471,"x_min":0,"x_max":0,"o":"m 604 1082 b 349 403 485 872 388 643 b 397 -278 314 175 331 -58 l 186 -278 b 119 403 108 -60 86 174 b 386 1082 157 644 250 876 "},")":{"ha":471,"x_min":0,"x_max":0,"o":"m -54 -276 b 200 403 65 -67 161 163 b 153 1083 235 631 219 864 l 365 1083 b 432 403 443 865 465 632 b 164 -276 394 161 300 -71 "},"*":{"ha":797,"x_min":0,"x_max":0,"o":"m 146 419 l 344 590 l 117 629 l 215 839 l 414 725 l 415 972 l 640 972 l 561 732 l 786 840 l 819 626 l 574 588 l 718 411 l 519 279 l 450 501 l 307 283 "},"+":{"ha":933,"x_min":0,"x_max":0,"o":"m 133 496 l 390 496 l 438 768 l 685 768 l 638 496 l 896 496 l 856 264 l 597 264 l 550 -10 l 304 -10 l 351 264 l 93 264 "},",":{"ha":442,"x_min":0,"x_max":0,"o":"m 369 103 l 136 -240 l -46 -204 l 133 151 "},"-":{"ha":304,"x_min":0,"x_max":0,"o":"m 42 433 l 338 433 l 301 226 l 6 226 "},".":{"ha":443,"x_min":0,"x_max":0,"o":"m 61 107 b 208 251 61 186 121 251 b 357 107 296 251 357 186 b 208 -37 357 28 296 -37 b 61 107 121 -37 61 28 "},"/":{"ha":858,"x_min":0,"x_max":0,"o":"m 975 972 l 188 -208 l -58 -207 l 739 972 "},":":{"ha":443,"x_min":0,"x_max":0,"o":"m 142 622 b 290 768 142 701 203 768 b 439 622 378 768 439 701 b 290 478 439 543 378 478 b 142 622 203 478 142 543 m 54 107 b 203 251 54 186 115 251 b 351 107 290 251 351 186 b 203 -37 351 28 290 -37 b 54 107 115 -37 54 28 "},";":{"ha":556,"x_min":0,"x_max":0,"o":"m 219 611 b 368 756 219 690 281 756 b 517 611 456 756 517 690 b 368 467 517 532 456 467 b 219 611 281 467 219 532 m 408 103 l 174 -240 l -7 -204 l 174 151 "},"<":{"ha":863,"x_min":0,"x_max":0,"o":"m 779 222 l 738 -6 l 97 290 l 126 454 l 869 750 l 825 504 l 440 368 "},"=":{"ha":847,"x_min":0,"x_max":0,"o":"m 136 610 l 847 610 l 811 403 l 100 403 m 83 299 l 794 299 l 757 92 l 47 92 "},">":{"ha":863,"x_min":0,"x_max":0,"o":"m 136 517 l 175 744 l 815 449 l 788 285 l 44 -11 l 88 235 l 474 369 "},"?":{"ha":874,"x_min":0,"x_max":0,"o":"m 649 694 b 538 801 660 761 614 800 b 297 679 449 804 360 749 l 158 819 b 571 1003 274 929 408 1004 b 889 694 750 1001 917 885 b 551 393 864 524 704 429 l 528 293 l 328 293 l 342 542 l 386 542 b 649 694 518 544 631 611 m 240 92 b 386 217 240 161 303 217 b 532 92 469 217 532 161 b 386 -37 532 21 469 -37 b 240 92 303 -37 240 21 "},"@":{"ha":1038,"x_min":0,"x_max":0,"o":"m 56 444 b 686 1010 101 749 364 1010 b 1075 542 969 1010 1111 772 b 758 197 1051 339 919 193 b 621 314 676 200 631 247 b 447 211 575 251 515 211 b 301 433 326 211 288 317 b 557 736 319 592 429 739 b 669 664 610 736 647 706 l 685 722 l 858 722 l 782 436 b 772 399 779 425 775 411 b 790 347 769 375 769 351 b 906 542 836 333 899 440 b 675 856 931 700 869 856 b 226 444 438 856 264 669 b 488 111 196 258 272 114 b 743 169 582 110 663 138 l 776 28 b 454 -43 685 -17 578 -43 b 56 444 154 -40 17 182 m 486 444 b 513 361 482 407 483 367 b 622 503 558 351 615 446 b 594 586 625 543 625 581 b 486 444 544 596 493 500 "},"A":{"ha":1021,"x_min":0,"x_max":0,"o":"m 643 154 l 365 154 l 263 0 l -47 0 l 649 1042 l 989 0 l 692 0 m 444 354 l 626 354 l 569 569 "},"B":{"ha":939,"x_min":0,"x_max":0,"o":"m 894 269 b 474 0 867 74 689 0 l 57 0 l 224 972 l 599 972 b 918 722 775 972 944 894 b 746 515 903 624 836 556 b 894 269 843 474 911 393 m 458 765 l 428 589 l 501 589 b 632 681 568 589 622 621 b 543 765 642 738 606 765 m 460 207 b 624 311 533 208 611 231 b 507 404 635 382 575 403 l 394 404 l 360 207 "},"C":{"ha":950,"x_min":0,"x_max":0,"o":"m 379 486 b 589 233 356 342 443 236 b 888 356 717 232 808 293 l 846 69 b 542 -25 760 14 668 -25 b 86 486 233 -25 43 196 b 700 997 132 785 383 997 b 983 901 822 997 906 961 l 940 615 b 689 739 883 686 806 739 b 379 486 540 739 406 638 "}}}
